<svg fill="none" height="32" viewBox="0 0 32 32" width="32" xmlns="http://www.w3.org/2000/svg"><path clip-rule="evenodd" d="m5 0c-2.76141 0-5 2.23858-5 5v22c0 2.7614 2.23859 5 5 5h22c2.7614 0 5-2.2386 5-5v-22c0-2.76142-2.2386-5-5-5zm14.1182 8c0 .23775.0222.4719.0631.69851.1968 1.04755.8167 1.94649 1.6779 2.50739.6013.3938 1.314.6204 2.0823.6204l-.0002.613v2.136c-1.4253 0-2.7467-.4569-3.8231-1.2296v5.5909c0 2.7899-2.2716 5.0634-5.0591 5.0634-1.0764 0-2.0786-.3419-2.8989-.9176-1.30653-.9176-2.1602-2.4333-2.1602-4.1458 0-2.7936 2.2679-5.0634 5.0554-5.0597.2338 0 .4603.0186.683.0483v.6501l-.0082.0039.0081-.0002v2.1547c-.2152-.0669-.4454-.1078-.6829-.1078-1.2731 0-2.3087 1.0365-2.3087 2.3107 0 .8879.5048 1.6568 1.2397 2.0469.0109.0149.0219.0297.0331.0443-.0084-.0163-.0182-.0323-.0294-.048.3229.1709.6867.2674 1.0727.2674 1.2434 0 2.2605-.9918 2.305-2.2251l.0037-11.0221z" fill="#000" fill-rule="evenodd"/></svg>